<svg width="171" height="45" viewBox="0 0 171 45" fill="none" xmlns="http://www.w3.org/2000/svg">
<path d="M3 15.0273C5.82029 22.4744 8.92515 29.6989 11.7716 37.0909C13.759 42.252 14.7945 44.5006 17.9722 38.0166C22.5925 28.5894 22.6943 17.9131 26.7438 8.46995C29.9832 0.916148 30.399 24.541 32.642 32.4621C38.6589 53.7108 34.3708 24.4407 38.9938 20.5818C41.3173 18.6423 46.1342 19.1171 48.8241 18.8846C60.9646 17.8349 72.9967 16.6816 85.196 16.4931C106.791 16.1593 128.402 16.4159 150 16.4159" stroke="#CEFF48" stroke-width="5" stroke-linecap="round"/>
<path d="M147 4.28587C147 10.6449 148.372 16.5783 148.372 22.9841C148.372 30.5587 149.745 12.4786 149.745 10.016C149.745 8.94931 149.071 4.52919 150.05 3.6827C153.855 0.389567 163.838 9.96447 166.366 12.1271C173.708 18.4103 154.192 23.3609 149.745 26" stroke="#CEFF48" stroke-width="5" stroke-linecap="round"/>
</svg>
