<?xml version="1.0" encoding="UTF-8" standalone="no"?><!DOCTYPE svg PUBLIC "-//W3C//DTD SVG 1.1//EN" "http://www.w3.org/Graphics/SVG/1.1/DTD/svg11.dtd"><svg width="100%" height="100%" viewBox="0 0 1024 1024" version="1.1" xmlns="http://www.w3.org/2000/svg" xmlns:xlink="http://www.w3.org/1999/xlink" xml:space="preserve" xmlns:serif="http://www.serif.com/" style="fill-rule:evenodd;clip-rule:evenodd;stroke-linejoin:round;stroke-miterlimit:2;"><g id="c2afaf9a-8b93-4915-a0f7-81baafc84487.png"><path d="M134.728,150.598c17.646,-1.341 20.563,-0.832 22.228,-0.836c197.816,-0.507 363.136,-0.11 394.713,-0.035c212.912,0.51 234.272,-2.86 260.332,6.208c73.831,25.692 82.163,78.813 89.934,79.467c90.475,7.609 108.599,81.826 106.454,108.217c-2.05,25.222 -14.55,102.201 -15.989,111.061c-2.263,13.934 -40.234,265.165 -41.891,275.059c-15.191,90.746 -96.445,144.781 -168.181,144.751c-34.189,-0.014 -624.644,0.033 -630.312,-0.039c-39.827,-0.506 -81.427,-24.713 -100.612,-47.78c-29.207,-35.118 -35.638,-66.086 -35.568,-99.461c0.734,-351.818 -1.131,-351.809 -0.027,-382.38c1.605,-44.457 -7.967,-84.645 19.733,-128.619c35.985,-57.126 84.57,-63.334 99.187,-65.612Zm-43.81,583.968c-0.228,-1.668 -1.399,-7.722 -1.127,-25.863c0.495,-33.041 -1.235,-409.083 0.927,-426.733c3.768,-30.767 26.656,-48.846 46.655,-55.011c13.841,-4.267 21.261,-2.467 609.188,-2.779c16.105,-0.009 43.65,-2.976 63.83,14.932c21.858,19.397 22.716,35.83 23.899,45.258c1.243,9.91 0.458,398.335 0.388,432.973c-0.126,62.19 -47.417,75.93 -72.082,75.992c-47.957,0.121 -316.634,0.797 -599.467,0.026c-35.656,-0.097 -64.455,-21.536 -72.211,-58.794Z" style="fill:#fff;fill-opacity:1;"/><path d="M394.363,423.772c0.004,59.216 2.347,66.461 -9.701,81.009c-14.95,18.051 -38.504,14.791 -48.851,14.804c-124.823,0.161 -124.806,0.454 -135.638,-0.189c-14.729,-0.875 -35.456,-18.35 -36.258,-36.381c-0.056,-1.252 -0.668,-151.326 0.195,-155.519c5.287,-25.69 22.423,-33.713 33.494,-37.139c5.412,-1.675 5.529,-1.425 129.575,-1.456c26.509,-0.007 57.342,-3.471 66.819,39.845c1.621,7.41 0.475,87.424 0.366,95.026Z" style="fill:#fff;fill-opacity:1;"/><path d="M163.798,669.245c-0.007,-0.248 -5.453,-37.755 22.668,-44.806c6.812,-1.708 329.814,-0.44 471.283,-0.757c63.041,-0.142 72.397,-2.235 83.471,12.571c11.316,15.129 11.778,62.426 -26.731,61.815c-63.971,-1.015 -457.324,-0.29 -497.091,-0.217c-13.073,0.024 -51.478,5.64 -53.6,-28.606Z" style="fill:#fff;fill-opacity:1;"/><path d="M445.029,487.915c0.013,-11.863 -0.104,-11.752 0.141,-18.556c0.417,-11.619 12.156,-25.146 25.154,-26.544c11.573,-1.245 11.566,-0.335 145.493,-0.169c106.191,0.131 107.939,-1.739 118.101,7.385c13.121,11.78 10.685,25.106 10.733,31.715c0.297,41.493 -29.983,37.864 -54.827,37.844c-216.482,-0.173 -216.578,0.253 -219.618,-0.652c-25.866,-7.703 -25.117,-29.849 -25.176,-31.023Z" style="fill:#fff;fill-opacity:1;"/><path d="M445.04,318.913c0.144,-2.852 1.072,-21.285 21.464,-28.513c6.369,-2.257 11.371,-1.348 218.384,-1.49c23.412,-0.016 43.849,-3.613 56.163,18.013c5.81,10.203 3.546,32.657 1.975,36.733c-9.845,25.537 -34.217,21.803 -51.973,21.791c-218.188,-0.149 -218.743,1.032 -227.093,-3.072c-23.028,-11.317 -18.975,-32.144 -18.921,-43.462Z" style="fill:#fff;fill-opacity:1;"/></g></svg>