<?xml version="1.0" encoding="UTF-8" standalone="no"?><!DOCTYPE svg PUBLIC "-//W3C//DTD SVG 1.1//EN" "http://www.w3.org/Graphics/SVG/1.1/DTD/svg11.dtd"><svg width="100%" height="100%" viewBox="0 0 1067 1067" version="1.1" xmlns="http://www.w3.org/2000/svg" xmlns:xlink="http://www.w3.org/1999/xlink" xml:space="preserve" xmlns:serif="http://www.serif.com/" style="fill-rule:evenodd;clip-rule:evenodd;stroke-linecap:round;stroke-linejoin:round;stroke-miterlimit:1.5;"><g id="Aviso"><path d="M440.575,185.86c17.567,-35.134 53.477,-57.328 92.758,-57.328c39.281,-0 75.191,22.193 92.758,57.328c88.217,176.435 219.264,438.527 301.094,602.188c16.074,32.148 14.356,70.326 -4.54,100.901c-18.896,30.574 -52.276,49.185 -88.218,49.185l-602.188,-0c-35.942,0 -69.322,-18.61 -88.218,-49.185c-18.896,-30.574 -20.614,-68.753 -4.54,-100.901c81.83,-163.661 212.877,-425.753 301.094,-602.188Z" style="fill:#fff;fill-opacity:0;stroke:#fff;stroke-width:61.25px;"/><g id="_-" serif:id="!"><path id="_2" serif:id="2" d="M489.12,763.239c0,-30.136 14.848,-45.203 44.543,-45.203c29.256,0 43.884,15.068 43.884,45.203c0,29.256 -14.628,43.884 -43.884,43.884c-29.696,0 -44.543,-14.628 -44.543,-43.884Z" style="fill:#fff;fill-rule:nonzero;"/><path id="_1" serif:id="1" d="M491.759,379.505c-0.66,-12.758 2.695,-22.272 10.064,-28.541c7.369,-6.269 17.982,-9.404 31.84,-9.404c13.638,0 24.086,3.135 31.345,9.404c7.259,6.269 10.558,15.783 9.899,28.541l-12.868,268.911c-0.44,7.699 -3.025,13.913 -7.754,18.642c-4.729,4.729 -11.603,7.094 -20.622,7.094c-9.679,0 -16.938,-2.31 -21.777,-6.929c-4.839,-4.619 -7.479,-10.888 -7.919,-18.807l-12.208,-268.911Z" style="fill:#fff;fill-rule:nonzero;"/></g></g></svg>