<svg width="477" height="45" viewBox="0 0 477 45" fill="none" xmlns="http://www.w3.org/2000/svg">
<path fill-rule="evenodd" clip-rule="evenodd" d="M452.726 6.15726C452.707 5.71145 452.711 5.34773 452.735 5.07208C453.193 4.96245 453.952 4.94687 455.149 5.23769C456.776 5.633 458.709 6.47584 460.73 7.56118C463.958 9.29482 467.028 11.427 469.021 12.8106L469.021 12.8107L469.023 12.8121C469.529 13.1638 469.966 13.4671 470.318 13.703C470.854 14.0625 471.11 14.3256 471.226 14.4712C471.216 14.4852 471.204 14.5005 471.191 14.5169C470.919 14.858 470.347 15.3421 469.352 15.9228C468.39 16.4847 467.185 17.051 465.803 17.6152C463.034 18.7455 459.781 19.7786 456.782 20.7161L456.14 20.9165C454.609 21.3943 453.114 21.8608 451.836 22.3032C451.929 21.6062 452.022 20.832 452.111 20.0439C452.546 16.1908 453.002 10.9124 453.002 9.51564C453.002 9.13016 452.942 8.56597 452.893 8.11108L452.893 8.10967L452.874 7.93237C452.813 7.35633 452.752 6.74502 452.726 6.15726ZM471.309 14.3447C471.311 14.3421 471.311 14.3403 471.312 14.3395L471.312 14.3389C471.312 14.3389 471.311 14.3409 471.309 14.3447ZM451.556 27.7665C450.379 28.3141 448.993 27.8663 448.349 26.7695C447.622 26.612 447.147 26.1603 446.93 25.8946C446.662 25.5666 446.54 25.2479 446.493 25.1191C446.435 24.9575 446.401 24.8156 446.381 24.7211C446.267 24.1855 446.251 23.3505 446.251 22.4838C446.251 21.1186 446.166 19.7712 446.032 18.4153C439.939 18.4137 427.387 18.4059 410.551 18.3953C325.246 18.3419 129.946 18.2196 107.412 18.4926C93.5323 18.6607 79.8215 19.6 65.9472 20.5505L65.9471 20.5505C64.3472 20.6601 62.7452 20.7698 61.1404 20.8786C60.2713 20.9375 59.2583 20.9541 58.2571 20.9706H58.257L58.0223 20.9745C56.9144 20.993 55.7877 21.0155 54.6877 21.0875C52.352 21.2402 50.678 21.5971 49.7968 22.1736C49.7094 22.2308 49.3939 22.5259 49.0373 23.4617C48.6998 24.3474 48.4323 25.5227 48.226 26.9193C47.9043 29.0966 47.7716 31.4827 47.6484 33.6961C47.6122 34.3478 47.5768 34.9846 47.5376 35.5967C47.4565 36.8633 47.353 38.1278 47.1519 39.0765C47.06 39.5102 46.8933 40.1649 46.5256 40.7423C46.3304 41.0488 45.9763 41.4972 45.3854 41.8064C44.7226 42.1532 43.9891 42.2051 43.3276 42.0206C42.2737 41.7267 41.6488 40.907 41.3932 40.5548C41.0435 40.0728 40.7109 39.4717 40.3861 38.8046C39.7295 37.4559 38.9391 35.4879 37.9721 32.8114C37.1659 30.5802 36.5665 27.397 36.053 24.2064C35.8087 22.6891 35.5875 21.1964 35.3713 19.7375L35.3713 19.7371C35.1083 17.9628 34.8527 16.2382 34.5721 14.5797C34.3633 13.3454 34.1529 12.2288 33.935 11.2687C32.2975 14.8139 31.248 18.5544 30.1329 22.5283L30.1324 22.5304C30.0489 22.8277 29.9651 23.1264 29.8807 23.4264C28.4671 28.448 26.8827 33.7917 23.7246 38.8419C22.6782 40.515 21.6691 41.8624 20.6288 42.7419C19.5432 43.6599 18.0085 44.3834 16.2666 43.7845C14.8376 43.2933 13.9165 42.0833 13.3338 41.1884C12.6934 40.2048 12.0704 38.9572 11.4492 37.6931C9.77098 34.2775 8.02079 30.8958 6.25498 27.4841L6.25492 27.4839L5.86389 26.7284C3.97033 23.0687 2.06563 19.3729 0.249609 15.6148C-0.351129 14.3716 0.169667 12.8768 1.41284 12.2761C2.65601 11.6753 4.1508 12.1961 4.75154 13.4393C6.53416 17.1283 8.40967 20.7682 10.3047 24.4306L10.7004 25.1953L10.7004 25.1953C12.4612 28.5974 14.2345 32.0235 15.9368 35.4881C16.5836 36.8045 17.0768 37.7735 17.524 38.4603C17.5756 38.5396 17.6234 38.6099 17.6673 38.6721C18.0919 38.2348 18.688 37.4656 19.4853 36.1908C22.2225 31.8137 23.6507 27.1056 25.0677 22.0716C25.1619 21.7371 25.256 21.4009 25.3506 21.0631L25.3514 21.0605C26.6555 16.4038 28.0425 11.4513 30.6042 6.76961C30.9188 6.19478 31.287 5.63288 31.7328 5.17103C32.1639 4.7245 32.8565 4.17692 33.8244 4.03381C34.8947 3.87557 35.7841 4.28174 36.381 4.77866C36.9227 5.22961 37.2827 5.79219 37.524 6.24806C38.0116 7.16901 38.3742 8.35788 38.6684 9.55727C38.9728 10.7983 39.2463 12.2339 39.502 13.7456C39.7789 15.3818 40.0568 17.2512 40.3341 19.1158L40.3342 19.1164C40.5534 20.5905 40.7721 22.0615 40.9894 23.4118C41.5095 26.6426 42.0497 29.383 42.6745 31.1123L42.7741 31.3871C42.883 29.6858 43.0312 27.87 43.2797 26.1885C43.5099 24.6303 43.8427 23.0518 44.3651 21.6812C44.8683 20.3606 45.6723 18.8969 47.0596 17.9894C49.1431 16.6264 52.0247 16.251 54.3613 16.0981C55.5975 16.0173 56.8362 15.9936 57.9387 15.9752L58.1269 15.9721C59.1782 15.9546 60.0669 15.9398 60.8024 15.89C62.4056 15.7814 64.0086 15.6715 65.6115 15.5617C79.4669 14.6123 93.3219 13.6629 107.351 13.493C129.924 13.2195 325.361 13.3419 410.626 13.3954H410.628C426.86 13.4055 439.1 13.4132 445.393 13.4152L445.387 13.3775C444.957 10.3524 444.5 7.13675 444.5 3.78552C444.5 2.40481 445.619 1.28552 447 1.28552C447.635 1.28552 448.215 1.52251 448.656 1.91292C448.872 1.62213 449.144 1.34634 449.488 1.11324C451.596 -0.316101 454.193 -0.140037 456.33 0.379062C458.558 0.920436 460.922 1.98902 463.095 3.1561C466.618 5.04759 470.036 7.42462 471.994 8.7863L471.994 8.78655C472.448 9.10186 472.823 9.36271 473.103 9.55047C474.476 10.4719 475.694 11.6664 476.131 13.2539C476.613 15.0016 475.979 16.5304 475.103 17.6311C474.268 18.679 473.083 19.5345 471.874 20.2403C470.633 20.965 469.192 21.6321 467.692 22.2443C464.698 23.4669 461.247 24.559 458.273 25.4884L457.895 25.6066C454.985 26.5159 452.732 27.2201 451.556 27.7665ZM452.791 4.68928C452.801 4.6506 452.808 4.63443 452.809 4.63601C452.809 4.63759 452.805 4.65693 452.791 4.68928ZM45.5054 37.6982C45.5053 37.7004 45.4896 37.6844 45.4587 37.6434C45.4901 37.6755 45.5055 37.696 45.5054 37.6982Z" fill="#CEFF48"/>
</svg>
