<?xml version="1.0" encoding="UTF-8" standalone="no"?><!DOCTYPE svg PUBLIC "-//W3C//DTD SVG 1.1//EN" "http://www.w3.org/Graphics/SVG/1.1/DTD/svg11.dtd"><svg width="100%" height="100%" viewBox="0 0 4267 4267" version="1.1" xmlns="http://www.w3.org/2000/svg" xmlns:xlink="http://www.w3.org/1999/xlink" xml:space="preserve" xmlns:serif="http://www.serif.com/" style="fill-rule:evenodd;clip-rule:evenodd;stroke-linejoin:round;stroke-miterlimit:2;"><g id="Fundo"><path d="M471.14,2114.592c4.728,-109.758 88.95,-126.738 167.766,-164.024c143.09,-67.692 217.541,-99.036 229.07,-104.371c153.302,-70.942 236.151,-105.989 266.762,-120.583c141.156,-67.299 142.837,-63.129 154.564,-69.963c56.923,-33.17 92.076,-30.607 100.439,-29.997c63.605,4.638 120.259,94.19 41.044,167.593c-26.176,24.256 -648.977,299.715 -663.447,312.167c-8.911,7.668 5.325,4.547 131.039,66.508c89.89,44.304 360.325,168.641 391.756,183.092c123.505,56.784 132.348,51.724 159.21,109.083c13.369,28.549 0.94,70.922 -9.342,84.1c-60.294,77.272 -122.538,35.808 -163.466,17.772c-90.968,-40.088 -108.324,-50.446 -170.743,-79.59c-21.62,-10.095 -226.755,-105.876 -269.883,-126.959c-72.89,-35.634 -200.142,-93.104 -209.183,-98.264c-34.23,-19.537 -158.304,-51.988 -155.585,-146.563Z" style="fill:#fefefe;fill-opacity:1;"/><path d="M2755.325,1651.145c32.284,-30.994 64.672,-25.655 71.851,-25.264c21.357,1.162 21.174,2.631 245.272,106.403c78.242,36.232 139.607,63.388 145.981,66.328c151.313,69.782 151.229,69.335 296.589,135.863c142.999,65.448 160.546,69.123 184.608,108.357c17.891,29.171 14.232,30.6 19.92,59.148c3.736,18.753 -11.469,56.845 -12.679,58.728c-17.344,26.993 -15.361,28.733 -41.123,47.44c-30.231,21.953 -411.872,194.976 -526.74,250.938c-124.449,60.63 -126.071,56.169 -249.897,117.061c-108.427,53.32 -162.024,-36.443 -160.645,-78.256c2.152,-65.277 42.592,-88.079 73.943,-103.46c118.965,-58.364 121.38,-52.593 240.559,-110.692c78.902,-38.464 79.612,-36.189 138.678,-64.13c84.522,-39.983 85.505,-36.843 170.023,-76.723c67.067,-31.646 91.377,-35.618 71.035,-40.513c-1.158,-0.279 -18.67,-8.646 -20.284,-9.417c-37.268,-17.808 -37.632,-16.083 -74.816,-33.606c-386.318,-182.053 -387.51,-179.404 -420.741,-195.969c-119.249,-59.444 -123.846,-53.106 -154.368,-86.642c-27.982,-30.745 -33.388,-88.287 2.835,-125.595Z" style="fill:#fefefe;fill-opacity:1;"/><path d="M2380.98,1419.011c3.075,8.523 4.816,6.794 5.353,7.385c25.1,32.684 11.848,58.85 -13.161,134.118c-11.301,34.009 -122.558,368.842 -142.029,424.861c-91.634,263.643 -226.369,696.049 -246.759,732.742c-24.932,44.869 -127.367,79.889 -174.799,-7.368c-14.964,-27.528 -11.772,-31.582 90.572,-330.12c110.793,-323.182 107.653,-323.775 220.772,-645.871c50.626,-144.154 47.573,-145.147 52.531,-157.466c30.692,-76.264 46.289,-187.769 145.292,-183.628c34.599,1.447 34.31,4.382 62.228,25.347Z" style="fill:#fefefe;fill-opacity:1;"/></g></svg>