<?xml version="1.0" encoding="UTF-8" standalone="no"?><!DOCTYPE svg PUBLIC "-//W3C//DTD SVG 1.1//EN" "http://www.w3.org/Graphics/SVG/1.1/DTD/svg11.dtd"><svg width="100%" height="100%" viewBox="0 0 1024 1024" version="1.1" xmlns="http://www.w3.org/2000/svg" xmlns:xlink="http://www.w3.org/1999/xlink" xml:space="preserve" xmlns:serif="http://www.serif.com/" style="fill-rule:evenodd;clip-rule:evenodd;stroke-linejoin:round;stroke-miterlimit:2;"><g id="_46770530-50d7-4fcd-949d-6b399e51ddf5.png" serif:id="46770530-50d7-4fcd-949d-6b399e51ddf5.png"><path d="M652.448,974.838c-0.518,-14.91 -0.185,-14.86 -0.043,-186.492c0.047,-56.368 8.717,-128.421 -61.489,-180.832c-84.952,-63.42 -220.716,-9.41 -220.924,126.889c-0.026,17.235 0.13,238.092 -0.049,242.76c-1.055,27.519 -25.237,35.013 -39.562,34.673c-28.811,-0.684 -118.61,1.2 -132.593,-1.444c-24.718,-4.675 -48.516,-10.089 -77.669,-37.556c-6.26,-5.898 -40.55,-38.204 -44.84,-97.715c-0.595,-8.254 -0.296,-206.074 -0.269,-223.993c0.31,-204.994 -1.732,-205.23 3.837,-234.623c14.586,-76.987 49.965,-106.033 119.376,-169.609c184.441,-168.937 184.692,-168.635 212.134,-194.879c47.384,-45.316 103.701,-42.808 127.7,-36.838c46.732,11.626 62.644,32.043 149.224,111.299c13.557,12.41 13.865,11.9 27.432,24.252c8.988,8.184 66.663,60.696 112.987,101.6c3.487,3.079 38.47,33.969 43.495,38.591c78.261,71.977 77.856,140.982 77.784,184.273c-0.668,398.89 2.233,399.335 -3.769,423.471c-24.799,99.73 -110.084,113.126 -138.642,113.166c-116.717,0.165 -116.83,0.835 -126.739,-1.316c-20.607,-4.473 -28.225,-21.281 -27.381,-35.679Z" style="fill:#fff;fill-opacity:1;"/></g></svg>