<?xml version="1.0" encoding="UTF-8" standalone="no"?><!DOCTYPE svg PUBLIC "-//W3C//DTD SVG 1.1//EN" "http://www.w3.org/Graphics/SVG/1.1/DTD/svg11.dtd"><svg width="100%" height="100%" viewBox="0 0 2049 2049" version="1.1" xmlns="http://www.w3.org/2000/svg" xmlns:xlink="http://www.w3.org/1999/xlink" xml:space="preserve" xmlns:serif="http://www.serif.com/" style="fill-rule:evenodd;clip-rule:evenodd;stroke-linejoin:round;stroke-miterlimit:2;"><g id="LOGO"><g id="Circulo"><path id="Circulo-Cortado" serif:id="Circulo Cortado" d="M1492.222,1092.816c0,263.163 0.621,263.247 -4.774,302.642c-27.204,198.643 -202.001,386.144 -448.47,387.202c-53.201,0.228 -142.215,2.918 -253.282,-59.202c-91.278,-51.052 -229.14,-179.949 -229.451,-397.521c-0.661,-462.855 -0.955,-462.82 0.478,-503.037c3.327,-93.363 43.344,-216.891 142.88,-309.39c145.208,-134.941 310.517,-128.834 405.303,-118.224c14.497,1.623 75.973,15.738 75.627,17.729c-0.2,1.149 -7.419,7.956 -14.36,15.486c-6.864,7.446 -13.063,15.625 -14.063,15.42c-34.261,-7.048 -44.915,-16.693 -149.935,-15.739c-176.496,1.603 -376.764,131.683 -405.501,368.727c-2.956,24.382 -2.777,24.473 -2.752,529.029c0.012,239.329 189.211,418.37 416.419,419.186c44.319,0.159 220.719,10.383 357.412,-161.351c65.562,-82.368 79.732,-175.748 82.243,-192.29c5.448,-35.899 4.825,-36.07 4.825,-419.998c0,-158.524 0.065,-155.014 -7.652,-207.777c-0.271,-1.85 -0.217,-4.473 0.138,-5.401c0.503,-1.312 4.383,-11.554 5.699,-13.655c2.515,-4.015 11.59,-24.328 12.831,-26.937c1.164,-2.448 4.49,-11.928 4.6,-11.959c1.611,-0.451 3.362,9.299 4.925,14.652c1.517,5.192 3.412,13.605 6.466,26.19c12.086,49.807 10.395,63.794 10.395,346.22Z" style="fill:#fff;fill-opacity:1;"/></g><path id="Vetor" d="M1350.279,292.54c-1.734,1.67 15.287,-24.49 41.213,-27.18c7.725,-0.801 12.074,3.687 12.83,4.467c21.638,22.335 14.438,20.067 27.329,50.344c7.176,16.855 8.931,25.475 10.98,31.159c6.961,19.31 60.785,174.811 19.549,293.422c-9.661,27.789 -104.126,226.476 -102.456,230.673c-109.272,247.16 -115.472,244.923 -132.295,313.799c-22.66,92.77 -45.252,385.742 -30.632,473.17c8.171,48.864 9.629,49.823 7.187,51.243c-11.385,6.618 -67.807,24.28 -67.931,21.842c-0.299,-5.904 0.25,-5.866 2.311,-73.863c0.018,-0.035 1.356,-11.446 1.312,-11.509c0.119,-0.603 1.447,-8.575 1.462,-8.642c0.002,-0.194 7.158,-191.335 7.174,-208.868c0.04,-0.038 1.54,-14.259 1.439,-14.4c1.063,-29.695 19.146,-194.845 32.236,-243.529c24.58,-91.42 49.417,-117.037 158.279,-376.225c47.594,-113.318 91.492,-163.406 89.672,-258.238c-2.219,-115.615 -43.014,-191.248 -46.416,-203.671c-0.043,-0.231 -1.921,-10.415 -2.516,-1.515c-1.064,3.332 -3.68,5.958 -5.757,8.772c-7.492,10.151 -23.385,15.222 -116.041,106.798c-0.753,0.069 -81.175,75.002 -81.178,75.118c-5.365,4.052 -10.75,8.079 -16.175,12.05c-23.747,17.382 -21.66,24.007 -29.409,32.396c-0.228,0.018 -6.018,5.713 -6.044,6.045c-14.469,13.632 -40.059,14.758 -47.591,21.269c-9.095,7.862 -17.322,16.681 -26.216,24.77c-117.38,106.755 -102.735,123.277 -232.734,214.467c-0.149,0.011 -22.547,19.927 -24.363,21.772c-1.512,0.486 -31.037,25.776 -31.078,26.559c-0.01,0.187 199.742,-99.919 226.55,-95.499c19.212,3.168 17.627,30.902 10.292,38.515c-132.622,137.63 -296.106,249.824 -401.778,409.084c-0.145,0.01 -4.668,7.094 -6.725,7.401c-2.095,0.312 1.711,-6.792 -0.359,-6.344c0.669,-29.784 -9.6,-61.402 0.657,-89.372c3.853,-10.507 70.99,-60.347 77.494,-65.176c50.935,-37.813 48.568,-40.285 94.339,-84.266c115.692,-111.167 127.768,-125.446 116.085,-119.082c-3.889,3.081 -212.91,102.336 -229.561,99.307c-10.929,-1.988 -20.144,-18.151 -20.188,-22.363c-0.236,-22.51 36.874,-53.32 38.772,-56.156c0.522,-0.316 5.868,-5.9 6.169,-6.42c0.312,-0.371 18.777,-17.211 18.783,-17.314c20.749,-19.077 76.307,-59.898 78.896,-63.102c2.496,-2.105 7.284,-5.565 7.465,-6.019c3,-4.204 243.668,-226.949 250.415,-231.713c0.202,-0.01 6.041,-5.868 6.045,-6c24.096,-22.458 22.069,-24.837 50.453,-41.767c8.679,-5.177 18.148,-9.288 25.872,-15.805c18.832,-15.89 191.718,-175.985 195.997,-181.15c0.022,0.009 40.185,-39.22 40.187,-39.254Z" style="fill:#fff;"/></g></svg>