<?xml version="1.0" encoding="UTF-8" standalone="no"?><!DOCTYPE svg PUBLIC "-//W3C//DTD SVG 1.1//EN" "http://www.w3.org/Graphics/SVG/1.1/DTD/svg11.dtd"><svg width="100%" height="100%" viewBox="0 0 4267 4267" version="1.1" xmlns="http://www.w3.org/2000/svg" xmlns:xlink="http://www.w3.org/1999/xlink" xml:space="preserve" xmlns:serif="http://www.serif.com/" style="fill-rule:evenodd;clip-rule:evenodd;stroke-linejoin:round;stroke-miterlimit:2;"><g id="Fundo"><path d="M2523.154,3260.129c-266.788,-229.049 -150.865,-617.828 237.447,-740.798c61.004,-19.319 129.836,-26.468 141.292,-27.658c12.277,-1.275 64.319,-6.681 154.22,-4.462c2.681,0.066 2.535,0.945 33.231,4.412c30.347,3.428 136.564,32.092 137.622,31.183c4.968,-4.271 0.803,-1100.066 0.44,-1195.723c-0.238,-62.5 0.564,-65.975 -4.656,-65.439c-12.842,1.32 -1376.268,260.193 -1412.262,269.884c-4.549,1.225 -4.677,0.238 -58.012,10.101c-14.078,2.603 -171.78,31.767 -175.412,35.436c-4.996,5.046 1.081,375.53 1.71,1362.506c0.142,222.73 14.651,278.3 -61.329,407.505c-7.694,13.084 -40.39,54.585 -52.904,67.47c-92.585,95.329 -184.843,122.037 -200.265,128.402c-32.988,13.616 -130.294,30.856 -153.781,31.385c-51.21,1.152 -136.679,5.44 -237.137,-24.097c-61.686,-18.137 -160.834,-69.239 -228.391,-145.059c-123.509,-138.615 -154.23,-371.424 32.979,-552.201c9.087,-8.774 56.651,-54.704 129.135,-90.856c32.196,-16.058 204.333,-101.911 444.795,-66.47c129.412,19.074 127.344,39.883 136.701,33.617c4.001,-2.68 2.193,-32.735 -0.916,-1318.837c-0.728,-301.279 -19.019,-341.789 39.286,-387.697c39.778,-31.321 248.828,-57.672 487.401,-105.086c15.329,-3.047 596.757,-110.764 620.893,-116.256c18.817,-4.282 19.364,-0.99 237.359,-43.017c354.733,-68.388 486.832,-80.245 529.555,-84.079c38.091,-3.419 98.959,5.02 108.553,44.353c8.617,35.329 5.607,139.724 5.783,583.442c0.592,1495.063 3.312,1494.999 1.213,1624.981c-1.445,89.439 -12.447,147.664 -79.217,249.182c-27.32,41.538 -94.748,96.528 -103.859,103.958c-4.505,3.674 -83.059,55.385 -123.422,65.547c-6.462,1.627 -4.997,5.508 -79.585,24.579c-195.202,49.909 -395.064,-11.43 -500.93,-105.076c-2.513,-1.71 -5.025,-3.42 -7.538,-5.13Z" style="fill:#fefefe;fill-opacity:1;"/><path d="M2523.154,3260.129c2.513,1.71 5.025,3.42 7.538,5.13c-2.513,-1.71 -5.025,-3.42 -7.538,-5.13Z" style="fill:#cbcbcc;fill-opacity:0.53;"/></g></svg>