<?xml version="1.0" encoding="UTF-8" standalone="no"?><!DOCTYPE svg PUBLIC "-//W3C//DTD SVG 1.1//EN" "http://www.w3.org/Graphics/SVG/1.1/DTD/svg11.dtd"><svg width="100%" height="100%" viewBox="0 0 1067 1067" version="1.1" xmlns="http://www.w3.org/2000/svg" xmlns:xlink="http://www.w3.org/1999/xlink" xml:space="preserve" xmlns:serif="http://www.serif.com/" style="fill-rule:evenodd;clip-rule:evenodd;stroke-linecap:round;stroke-linejoin:round;stroke-miterlimit:1.5;"><g id="Outros"><circle cx="533.333" cy="544.154" r="393.98" style="fill:#fff;fill-opacity:0;stroke:#fff;stroke-width:58.33px;"/><g id="_-" serif:id="?"><path id="_2" serif:id="2" d="M393.764,432.466c0,-38.494 12.208,-68.63 36.625,-90.407c24.416,-21.777 58.181,-32.665 101.295,-32.665c44.653,0 79.353,10.283 104.1,30.85c24.746,20.567 37.12,49.658 37.12,87.272c0,14.738 -2.365,28.321 -7.094,40.749c-4.729,12.428 -10.888,22.822 -18.477,31.18c-7.589,8.359 -15.948,16.003 -25.076,22.932c-9.129,6.929 -18.312,12.978 -27.551,18.147c-9.239,5.169 -17.652,10.064 -25.241,14.683c-7.589,4.619 -13.748,9.404 -18.477,14.353c-4.729,4.949 -7.094,10.174 -7.094,15.673c0,4.399 2.2,9.789 6.599,16.168c4.179,6.159 6.269,12.868 6.269,20.127c0,10.778 -3.794,19.577 -11.383,26.396c-7.589,6.819 -16.003,10.229 -25.241,10.229c-10.338,0 -19.137,-3.633 -26.396,-10.899c-16.718,-16.078 -25.076,-35.238 -25.076,-57.479c0,-11.452 2.42,-22.078 7.259,-31.876c4.839,-9.802 11.108,-18.226 18.807,-25.272c7.699,-7.049 16.223,-13.712 25.571,-19.988c9.349,-6.276 18.697,-12.387 28.046,-18.333c9.349,-5.946 17.872,-12.057 25.571,-18.333c7.699,-6.276 13.968,-13.543 18.807,-21.803c4.839,-8.259 7.259,-17.233 7.259,-26.922c0,-16.518 -5.994,-29.292 -17.982,-38.321c-11.988,-9.029 -28.761,-13.543 -50.318,-13.543c-19.577,0 -35.085,4.856 -46.523,14.569c-11.438,9.713 -17.157,23.841 -17.157,42.383c0,10.153 -3.629,18.873 -10.888,26.159c-7.259,7.283 -15.948,10.924 -26.066,10.924c-10.119,0 -18.862,-3.629 -26.231,-10.888c-7.369,-7.259 -11.053,-15.948 -11.053,-26.066Z" style="fill:#fff;fill-rule:nonzero;"/><path id="_1" serif:id="1" d="M473.612,735.031c0,-30.136 14.848,-45.203 44.543,-45.203c29.256,0 43.884,15.068 43.884,45.203c0,29.256 -14.628,43.884 -43.884,43.884c-29.696,0 -44.543,-14.628 -44.543,-43.884Z" style="fill:#fff;fill-rule:nonzero;"/></g></g></svg>