<?xml version="1.0" encoding="UTF-8" standalone="no"?><!DOCTYPE svg PUBLIC "-//W3C//DTD SVG 1.1//EN" "http://www.w3.org/Graphics/SVG/1.1/DTD/svg11.dtd"><svg width="100%" height="100%" viewBox="0 0 4267 4267" version="1.1" xmlns="http://www.w3.org/2000/svg" xmlns:xlink="http://www.w3.org/1999/xlink" xml:space="preserve" xmlns:serif="http://www.serif.com/" style="fill-rule:evenodd;clip-rule:evenodd;stroke-linejoin:round;stroke-miterlimit:2;"><g id="Fundo"><path d="M2316.845,2485.395c0.161,-48.835 -8.251,-157.986 69.964,-253.023c44.122,-53.611 66.179,-74.151 62.705,-134.688c-1.509,-26.29 -29.493,-64.934 -40.459,-73.237c-89.456,-67.729 -186.255,18.742 -207.958,34.622c-72.51,53.051 -83.528,31.954 -171.133,-25.856c-138.277,-91.25 -208.18,22.558 -213.558,60.78c-14.774,104.997 75.337,117.632 117.25,241.949c8.522,25.278 17.996,53.377 20.603,332.808c0.996,106.706 7.85,127.028 1.84,133.197c-7.909,8.119 -197.372,52.448 -200.006,52.072c-21.523,-3.068 -7.137,-103.335 -97.206,-250.91c-100.844,-165.23 -138.476,-137.599 -318.48,-418.16c-100.943,-157.334 -202.769,-489.625 -54.291,-820.032c146.403,-325.789 414.049,-437.793 491.569,-469.588c400.189,-164.135 761.001,4.154 862.476,76.716c111.128,79.465 111.77,78.826 204.8,178.952c147.225,158.458 189.912,381.684 196.854,417.988c33.354,174.421 -7.064,348.009 -10.061,358.254c-23.51,80.381 -52.626,254.64 -333.214,554.589c-46.304,49.499 -57.778,73.985 -68.561,85.768c-39.565,43.23 -36.073,73.7 -90.868,90.851c-10.476,3.279 -195.16,50.266 -207.64,53.028c-19.359,4.284 -14.403,-12.276 -14.647,-17.718c-3.245,-72.157 -0.38,-191.698 0.02,-208.363Z" style="fill:#fefefe;fill-opacity:1;"/><path d="M2266.508,2539.597c0.446,14.889 5.329,177.711 -3.218,186.174c-4.083,4.043 -4.968,1.109 -69.347,18.689c-13.598,3.713 -13.947,-6.519 -13.172,-175.712c1.305,-284.765 69.483,-326.328 104.052,-387.833c5.482,-9.753 3.458,-54.725 -40.049,-11.151c-96.454,96.605 -87.936,257.689 -141.395,135.913c-73.584,-167.621 -144.522,-177.909 -128.435,-133.424c13.889,38.406 107.418,91.697 108.117,338.162c0.519,183.018 1.645,182.542 3.999,245.747c0.92,24.698 -15.668,18.103 -51.931,28.163c-22.407,6.216 -33.975,16.374 -34.654,-7.153c-11.466,-397.121 19.532,-430.644 -111.551,-591.246c-62.414,-76.469 -15.731,-194.626 104.063,-124.246c73.04,42.911 119.386,96.449 191.584,55.635c52.132,-29.47 141.079,-121.236 201.622,-53.436c55.054,61.653 -39.092,151.156 -53.729,172.433c-67.083,97.52 -64.165,191.361 -65.957,303.283Z" style="fill:#fdfdfd;fill-opacity:0.99;"/><path d="M2119.072,3399.924c-354.644,89.907 -374.427,111.921 -418.894,70.888c-29.725,-27.429 -50.647,-123.517 59.97,-152.947c37.399,-9.95 615.79,-158.672 625.408,-161.183c145.939,-38.104 165.126,-46.121 200.737,7.34c10.033,15.062 38.912,105.38 -75.585,135.074c-179.219,46.48 -360.294,92.808 -391.637,100.828Z" style="fill:#fefefe;fill-opacity:0.99;"/><path d="M2527.063,2921.076c91.982,4.936 103.151,133.492 12.029,162.447c-60.328,19.17 -60.959,15.359 -766.075,198.041c-52.559,13.617 -113.311,-33.207 -99.388,-95.979c15.352,-69.219 69.75,-71.269 228.746,-111.598c35.909,-9.137 71.818,-18.274 107.727,-27.411c474.654,-120.65 474.519,-122.375 516.963,-125.5Z" style="fill:#fefefe;fill-opacity:0.99;"/><path d="M2526.986,2712.614c104.793,1.491 103.636,127.016 28.715,154.317c-37.227,13.565 -712.739,180.419 -774.805,195.75c-119.227,29.45 -137.205,-107.49 -65.819,-147.228c18.977,-10.564 19.295,-9.585 262.375,-69.729c185.142,-45.809 514.017,-130.891 549.534,-133.11Z" style="fill:#fefefe;fill-opacity:0.99;"/><path d="M2300.27,3426.923c0.333,-2.907 3.673,-32.077 7.8,-35.738c16.486,-14.625 130.453,-39.71 139.989,-41.213c34.018,-5.362 43.524,36.29 29.337,85.538c-35.795,124.254 -88.372,172.046 -151.031,219.744c-129.756,98.774 -370.326,81.859 -489.762,-99.752c-37.462,-56.963 22.402,-60.403 40.705,-65.141c80.922,-20.949 89.132,-28.101 102.055,-3.934c64.314,120.272 207.241,94.163 256.676,49.698c54.219,-48.768 59.788,-93.587 64.232,-109.201Z" style="fill:#fefefe;fill-opacity:0.99;"/><path d="M3782.869,1693.765c-4.517,68.811 -48.596,59.479 -193.275,59.417c-302.897,-0.129 -303.423,4.234 -328.761,-2.822c-58.107,-16.181 -71.802,-116.343 24.589,-118.716c5.175,-0.127 430.967,-0.515 441.616,0.218c51.645,3.552 55.354,55.251 55.831,61.903Z" style="fill:#fdfdfd;fill-opacity:0.99;"/><path d="M1030.321,1734.484c-22.981,22.176 -26.919,18.719 -219.906,19.005c-264.54,0.392 -265.023,3.272 -287.104,-3.056c-68.034,-19.497 -51.286,-117.421 16.303,-118.427c14.441,-0.215 412.163,-0.879 445.748,0.334c58.455,2.111 78.683,66.558 44.959,102.144Z" style="fill:#fdfdfd;fill-opacity:0.99;"/><path d="M1395.569,918.76c-5.463,50.82 -60.852,84.474 -117.579,28.226c-121.488,-120.461 -123.285,-118.199 -243.407,-239.923c-59.821,-60.618 23.148,-143.266 89.559,-81.331c79.387,74.037 233.965,229.996 254.047,250.258c16.499,16.647 16.436,27.789 17.379,42.77Z" style="fill:#fefefe;fill-opacity:0.99;"/><path d="M2926.994,974.807c-44.244,-6.444 -87.394,-50.363 -28.726,-109.879c18.53,-18.798 168.974,-171.416 233.719,-232.89c80.038,-75.994 153.412,19.527 98.571,73.494c-260.461,256.307 -257.287,269.936 -303.564,269.275Z" style="fill:#fefefe;fill-opacity:0.99;"/><path d="M2127.026,712.264c-9.718,-1.011 -55.888,-2.786 -58.645,-60.165c-0.464,-9.657 -1.124,-333.635 -0.456,-345.907c3.296,-60.538 89.433,-77.985 119.117,-21.522c10.888,20.712 8.089,22.187 6.769,292.414c-0.224,45.838 14.028,139.716 -66.785,135.18Z" style="fill:#fefefe;fill-opacity:0.99;"/><path d="M1285.376,2337.689c12.016,0.467 21.924,-1.005 38.667,12.989c60.495,50.558 -19.872,112.759 -21.477,114.38c-14.921,15.08 -158.386,160.073 -187.917,187.1c-31.467,28.8 -72.756,10.171 -81.714,2.128c-49.593,-44.528 4.192,-97.139 10.107,-102.924c201.052,-196.661 202.328,-210.218 242.333,-213.673Z" style="fill:#fefefe;fill-opacity:0.99;"/><path d="M3181.018,2666.355c-4.046,-1.076 -21.727,-5.777 -43.96,-28.387c-99.339,-101.021 -101.788,-98.111 -201.439,-198.582c-40.072,-40.402 -13.336,-83.445 8.491,-94.952c45.291,-23.877 59.925,-5.42 179.944,114.833c92.297,92.478 150.065,129.366 123.055,175.737c-24.017,41.232 -57.93,31.498 -66.09,31.351Z" style="fill:#fefefe;fill-opacity:0.99;"/></g></svg>