<svg width="3" height="23" viewBox="0 0 3 23" fill="none" xmlns="http://www.w3.org/2000/svg">
<path d="M0.781551 14.2492C0.80837 13.1076 0.85245 11.9603 0.89653 10.8129C0.910011 10.3951 0.872266 9.98256 0.906254 9.54994C0.965314 8.0757 1.03003 6.60154 1.04084 5.12956C1.03089 4.48117 1.01557 3.82664 1.00294 3.17518C0.928474 2.38945 0.874601 1.5253 0.909001 0.774625C0.919543 0.544579 1.11293 0.465865 1.37744 0.627583C1.72367 0.866619 1.9685 1.23927 2.06322 1.67141C2.23736 2.50718 2.35675 3.36329 2.44514 4.21588C2.53353 5.06847 2.46881 5.92468 2.42348 6.79029C2.33938 7.82188 2.47819 8.87216 2.50379 9.92065C2.5166 11.0628 2.52347 12.211 2.50955 13.38L2.48846 15.5091C2.48437 16.5874 2.45735 17.6714 2.51395 18.7234C2.54387 19.5539 2.62372 20.3458 2.68733 21.1828C2.71424 21.3655 2.72187 21.5516 2.71006 21.7375C2.63909 22.4209 2.50428 22.643 2.18572 22.7954C2.11595 22.8341 2.04339 22.8663 1.96886 22.8919C1.73613 22.964 1.5219 22.694 1.36861 22.2069L1.19247 21.6619C1.14493 21.4813 1.10701 21.2976 1.07889 21.1118C1.01359 20.7442 0.972044 20.3528 0.906468 19.9913C0.792291 19.2361 0.733618 18.4705 0.730979 17.7015C0.715203 16.5623 0.729118 15.3933 0.725219 14.2422L0.781551 14.2492Z" fill="#CEFF48"/>
</svg>
