<?xml version="1.0" encoding="UTF-8" standalone="no"?><!DOCTYPE svg PUBLIC "-//W3C//DTD SVG 1.1//EN" "http://www.w3.org/Graphics/SVG/1.1/DTD/svg11.dtd"><svg width="100%" height="100%" viewBox="0 0 1915 300" version="1.1" xmlns="http://www.w3.org/2000/svg" xmlns:xlink="http://www.w3.org/1999/xlink" xml:space="preserve" xmlns:serif="http://www.serif.com/" style="fill-rule:evenodd;clip-rule:evenodd;stroke-linejoin:round;stroke-miterlimit:2;"><g id="Logo"><path d="M4.014,295.293l88.587,0l0,-221.469l-88.587,0l0,221.469Zm0,-236.233l88.587,0l0,-59.058l-88.587,0l0,59.058Zm271.299,138.417c25.469,0.738 42.448,2.584 50.569,5.537c5.537,1.845 8.121,5.537 8.121,10.336c0,4.429 -2.953,7.382 -8.489,8.859c-7.751,1.845 -24.362,2.953 -50.199,2.953c-26.577,0 -43.555,-1.477 -51.307,-4.06c-7.751,-2.584 -11.443,-7.751 -11.443,-16.241l-95.97,0c0,32.113 11.074,55.367 33.589,69.762c24.73,16.241 66.44,24.362 125.13,24.362c58.32,0 100.03,-7.382 125.13,-22.147c22.516,-13.288 33.589,-33.959 33.589,-61.642c0,-28.791 -9.597,-49.092 -29.16,-60.535c-22.516,-13.288 -65.702,-21.04 -129.56,-23.623c-26.577,-1.107 -43.187,-2.215 -50.199,-3.692c-5.537,-1.477 -8.121,-4.429 -8.121,-8.489c0,-4.429 2.584,-7.382 8.121,-8.859c7.751,-1.845 24.362,-2.953 50.199,-2.953c23.623,0 39.126,1.477 46.877,4.06c7.751,2.584 11.811,7.751 11.811,16.241l95.97,0c0,-32.113 -10.704,-55.367 -31.744,-69.762c-23.623,-16.241 -64.595,-24.362 -122.916,-24.362c-58.689,0 -100.399,7.014 -125.13,21.04c-22.516,12.919 -33.589,32.851 -33.589,60.535c0,28.791 9.597,48.723 28.791,59.796c22.516,13.288 65.702,21.04 129.928,22.885Zm184.557,97.816l95.97,0l0,-258.38l-95.97,-0l0,258.38Zm217.778,-258.38l-121.808,129.19l121.808,129.19l114.425,0l-121.808,-129.19l121.808,-129.19l-114.425,-0Zm252.844,107.042l0,55.368l61.273,0c-11.443,17.348 -31.744,25.838 -61.273,25.838c-46.877,0 -70.132,-19.563 -70.132,-59.058c0,-39.495 23.254,-59.058 70.132,-59.058c26.945,0 46.508,7.382 58.32,22.147l102.983,0c-7.751,-30.637 -24.73,-54.259 -51.676,-70.501c-27.684,-16.979 -64.226,-25.469 -109.627,-25.469c-54.259,0 -95.97,11.811 -124.391,35.066c-27.684,22.885 -41.71,55.367 -41.71,97.816c0,42.448 14.026,74.93 41.71,97.816c28.422,23.254 70.132,35.066 124.391,35.066c54.259,0 95.97,-11.811 124.391,-35.066c27.684,-22.885 41.71,-55.367 41.71,-97.816c0,-5.537 -0.738,-12.919 -1.845,-22.147l-164.256,0Zm407.871,76.408c-14.396,3.322 -28.052,4.799 -40.603,4.799c-16.61,0 -28.422,-1.477 -35.435,-4.429c-8.489,-3.322 -12.55,-9.228 -12.55,-17.718l0,-55.367l88.587,0l0,-73.823l-88.587,0l0,-55.367l-88.587,18.456l0,36.911l-51.676,0l0,73.823l51.676,0l0,66.44c0,30.637 10.336,52.784 30.637,66.072c19.563,12.55 50.937,18.825 94.862,18.825c18.456,0 35.804,-1.477 51.676,-4.799l0,-73.823l0.001,0Zm391.261,74.93l88.587,0l0,-122.916c0,-32.482 -7.751,-57.582 -23.623,-74.93c-16.241,-18.086 -39.865,-27.314 -70.501,-27.314c-53.522,0 -84.527,25.838 -92.279,77.883c-7.751,-52.045 -38.757,-77.883 -92.279,-77.883c-50.199,0 -80.467,23.254 -90.433,69.394l0,-65.702l-88.587,0l0,221.469l88.587,0l0,-122.916c0,-21.778 15.871,-32.851 47.985,-32.851c32.113,0 47.985,11.074 47.985,32.851l0,122.916l88.587,0l0,-122.916c0,-21.778 15.871,-32.851 47.985,-32.851c32.113,0 47.985,11.074 47.985,32.851l0,122.916l0.001,-0.001Zm143.979,-242.956c-9.553,-0 -16.781,-1.994 -21.765,-5.981c-4.901,-3.821 -7.31,-9.304 -7.31,-16.448c0,-7.144 2.409,-12.627 7.31,-16.448c4.984,-3.987 12.212,-5.981 21.765,-5.981c9.553,0 16.781,1.994 21.765,5.981c4.901,3.821 7.31,9.304 7.31,16.448c0,7.144 -2.409,12.627 -7.31,16.448c-4.984,3.987 -12.212,5.981 -21.765,5.981Zm0,-52.336c-12.212,0 -21.598,2.658 -27.996,7.892c-6.231,5.15 -9.387,12.461 -9.387,22.014c0,9.553 3.157,16.863 9.387,22.014c6.396,5.233 15.784,7.892 27.996,7.892c12.212,0 21.598,-2.658 27.996,-7.892c6.231,-5.15 9.387,-12.461 9.387,-22.014c0,-9.553 -3.157,-16.863 -9.387,-22.014c-6.396,-5.233 -15.784,-7.892 -27.996,-7.892Zm-5.483,24.34l9.719,0c1.911,0 2.908,0.748 2.908,2.16c0,1.412 -0.997,2.16 -2.908,2.16l-9.719,0l0,-4.32Zm23.758,2.16c0,-7.726 -4.818,-11.547 -14.454,-11.547l-20.435,0l0,29.906l11.131,0l0,-6.811l7.643,0l4.569,6.811l11.547,0l-5.732,-8.556c3.821,-1.911 5.732,-5.15 5.732,-9.803Z" style="fill:#fff;fill-rule:nonzero;"/></g></svg>