<svg width="37" height="53" viewBox="0 0 37 53" fill="none" xmlns="http://www.w3.org/2000/svg">
<path d="M0.0510741 30.958C0.642524 30.8612 1.23002 30.762 1.82147 30.6652C1.86355 30.6586 1.91665 30.6695 1.95321 30.6541C2.98133 30.2691 3.86142 30.634 4.75046 31.1443C7.50154 32.7159 10.2718 34.2561 13.0324 35.8119C13.1694 35.8901 13.3055 35.9786 13.4717 36.0801C13.2999 33.0776 13.7132 30.1846 14.1154 27.274C13.7681 27.8429 13.4145 28.4134 13.0711 28.9848C12.6431 29.7037 12.2309 30.4324 11.8053 31.1474C11.767 31.2102 11.6827 31.2772 11.6112 31.2874C10.6054 31.449 9.60036 31.6003 8.59534 31.7517C8.55962 31.7568 8.51691 31.7199 8.40203 31.6768C8.51793 31.4513 8.61239 31.2342 8.73297 31.0278C9.89752 28.9865 11.1278 26.9799 12.2163 24.9029C14.4916 20.5613 16.3075 16.02 17.9064 11.3893C18.0444 10.9942 18.222 10.801 18.6578 10.7546C19.5777 10.6537 20.4908 10.484 21.5109 10.3257C19.9208 15.7697 18.6426 21.21 17.675 26.7377C17.7391 26.5883 17.8031 26.4389 17.8632 26.2871C21.038 18.2558 24.2231 10.2255 27.3781 2.18215C27.6633 1.45681 28.0542 1.11909 28.8366 1.07428C29.6254 1.02797 30.4068 0.842496 31.3325 0.696594C29.9768 11.4702 28.6342 22.1601 27.2916 32.8501C27.3359 32.8664 27.3843 32.8851 27.4262 32.9053C27.5005 32.7837 27.5771 32.6581 27.6514 32.5365C29.325 29.7234 31.0209 26.9185 32.6708 24.0909C33.0421 23.4558 33.5083 23.1371 34.2392 23.0878C34.8844 23.0454 35.5237 22.897 36.1651 22.7984C36.8065 22.6999 36.8723 22.7346 36.7896 23.3951C36.6605 24.3988 36.5003 25.3998 36.3196 26.3989C35.4625 31.0515 34.5277 35.689 34.021 40.3993C33.6065 44.2556 33.4783 48.1145 33.8746 51.9864C33.9159 52.3725 33.8296 52.5406 33.4209 52.5873C32.5588 52.6913 31.6981 52.8553 30.8377 52.9656C30.6845 52.9852 30.4309 52.9112 30.367 52.8022C28.8782 50.213 26.7253 48.231 24.4306 46.3833C20.5122 43.2267 16.2762 40.5279 12.0138 37.8723C8.21609 35.5057 4.3537 33.245 0.340317 31.2584C0.24054 31.2082 0.146389 31.14 0.0474439 31.0796C0.0468144 31.0361 0.0501388 30.9951 0.0510741 30.958ZM22.9656 42.1175C24.1312 32.2782 25.2977 22.4286 26.4733 12.493C26.3532 12.7698 26.262 12.9727 26.1811 13.1764C23.7984 19.2514 21.4316 25.336 19.0307 31.4053C18.5292 32.6718 17.9389 33.9058 17.3511 35.1358C17.2479 35.3582 17.0027 35.5909 16.7723 35.6657C16.3545 35.7985 15.903 35.8083 15.4632 35.8792C14.8971 35.9699 14.3303 36.0709 13.7237 36.1746C16.8785 38.1973 19.9517 40.1755 22.9656 42.1175ZM23.8417 42.6847C26.0099 44.4013 28.1275 46.0762 30.2585 47.7648C30.2304 41.7856 31.2629 35.8935 32.3128 29.9906C32.183 30.1053 32.1 30.2324 32.0265 30.3706C31.0055 32.2034 29.9624 34.028 28.9731 35.88C27.9463 37.8115 27.0691 39.8182 26.5286 41.9496C26.4642 42.2065 26.3519 42.3103 26.0955 42.3476C25.3509 42.4371 24.6118 42.5623 23.8417 42.6847Z" fill="#A1AAD9"/>
</svg>
