<svg width="70" height="78" viewBox="0 0 70 78" fill="none" xmlns="http://www.w3.org/2000/svg">
<path d="M44.0539 72.8503C40.0022 75.0798 34.8567 76.9205 28.4665 77.2339C26.015 77.3549 23.4772 77.1835 20.7507 76.418C15.9159 75.0687 12.0809 72.3559 9.28542 68.653C5.99361 64.2996 3.32503 59.8612 1.82849 55.3448C0.759759 52.1132 0.338264 49.0126 0.133113 45.9426C-0.413962 37.756 0.721772 30.1906 3.43562 23.2802C6.02808 16.6906 10.1341 11.0152 15.952 6.46297C20.6363 2.80615 26.4019 0.407052 34.2532 0.54637C36.5677 0.588863 39.0888 1.0471 41.4987 1.29286C42.1592 1.36423 42.8575 1.4439 43.4472 1.38006C46.6472 1.03077 50.0027 1.14869 53.7002 2.11086C59.9704 3.73634 64.8498 7.40251 67.3845 12.4779C69.1783 16.0742 69.8848 19.528 69.8484 22.7954C69.741 38.3402 65.4539 51.9165 55.9967 62.9931C52.8704 66.7138 49.1427 69.9661 44.0539 72.8503ZM32.1309 8.31048C30.1115 9.74568 27.9134 11.1586 25.9154 12.7409C21.1786 16.4887 17.755 21.1295 14.904 26.1413C10.61 33.6893 7.78512 41.8968 7.30396 51.2014C7.1158 54.7316 7.68859 58.2699 10.5097 62.1494C13.4958 66.2589 17.4431 69.2926 22.7934 70.67C27.7025 71.9274 31.9074 71.6057 35.8667 70.7514C36.0367 70.7148 36.2187 70.51 36.1756 70.3637C35.9395 69.594 36.4281 69.337 37.1284 69.2292C43.2953 68.2343 47.8402 65.6291 51.5337 62.1415C57.0413 56.9114 60.4 50.4677 62.5323 43.2754C64.1078 37.9316 63.7084 32.0674 61.6417 25.7394C60.2346 21.4364 58.1305 17.1622 54.1742 13.1125C50.3382 9.18614 45.7933 6.4139 40.371 5.3454C39.7774 5.23179 39.1297 5.24867 38.7096 5.4239C36.5101 6.32386 34.3888 7.30943 32.1309 8.31048ZM47.9836 3.5409C54.8491 7.85516 58.5791 11.3025 61.7242 16.2046C64.0031 19.771 65.283 23.2999 66.0316 26.7914C66.1778 27.4958 66.3399 28.2093 66.492 28.9036C67.0096 25.9813 67.1557 22.9659 66.7809 19.7845C66.5154 17.5557 66.0336 15.2964 64.9131 12.9648C63.9991 11.0489 62.7567 9.18605 60.6656 7.61482C56.589 4.54694 52.4162 3.78201 47.9836 3.5409ZM28.4906 7.13871C18.3432 10.9029 5.83687 28.292 6.29864 37.9523C10.488 25.6133 16.569 14.5283 28.4906 7.13871ZM30.3784 3.39021C30.3523 3.36168 30.3422 3.3424 30.322 3.30377C30.0213 3.34579 29.7047 3.37863 29.3982 3.43077C25.8068 4.05278 22.8191 5.36022 20.2862 7.13238C12.4983 12.5554 7.6009 19.8224 4.98533 28.5146C4.91062 28.7545 4.87794 29.0321 4.81918 29.2812C5.27242 28.6804 5.50672 27.98 5.77285 27.2981C8.09917 21.3904 11.9752 16.4448 16.4716 11.8978C19.3649 8.98597 22.6102 6.38513 26.8812 4.65955C28.0194 4.19811 29.204 3.80381 30.3784 3.39021ZM34.2287 73.9568C34.1781 73.8602 34.1275 73.7636 34.077 73.667C29.3883 74.1272 24.4795 73.8268 19.0515 71.6633C20.9381 72.6312 22.7632 73.7793 24.7903 73.8041C25.1867 73.8173 25.7577 74.2279 26.2436 74.4545C26.5482 74.5899 26.9554 74.8789 27.1631 74.8506C29.5279 74.5851 31.8783 74.271 34.2287 73.9568ZM12.9744 67.8986C11.8475 66.8302 10.7366 65.771 9.60386 64.7128C10.3425 65.9748 11.5304 67.0111 12.9744 67.8986Z" fill="#CEFF48"/>
</svg>
